<?xml version="1.0" standalone="no"?>
<!DOCTYPE svg PUBLIC "-//W3C//DTD SVG 20010904//EN"
 "http://www.w3.org/TR/2001/REC-SVG-20010904/DTD/svg10.dtd">
<svg version="1.0" xmlns="http://www.w3.org/2000/svg"
 width="1920.000000pt" height="1080.000000pt" viewBox="0 0 1920.000000 1080.000000"
 preserveAspectRatio="xMidYMid meet">

<g transform="translate(0.000000,1080.000000) scale(0.100000,-0.100000)"
fill="#000000" stroke="none">
<path d="M7360 8425 l0 -615 35 0 c19 0 35 -4 35 -10 0 -5 -16 -10 -35 -10
-28 0 -35 -4 -35 -20 0 -20 -7 -20 -440 -20 l-440 0 0 -255 0 -255 -770 0
-770 0 0 -480 0 -480 -220 0 -220 0 0 -930 0 -930 220 0 220 0 0 -370 0 -370
530 0 530 0 0 -30 c0 -29 2 -30 45 -30 l45 0 0 -200 0 -200 -50 0 -50 0 0 145
0 145 -315 0 -315 0 0 -885 0 -885 1000 0 1000 0 0 -430 0 -430 1223 0 c758 0
1248 4 1291 10 106 16 191 50 347 139 114 65 150 81 176 79 32 -3 25 -8 -99
-80 -152 -87 -186 -102 -283 -128 l-70 -19 548 0 547 -1 0 200 0 200 -109 0
-109 0 -147 -86 c-118 -69 -153 -85 -180 -82 -31 3 0 23 293 191 314 180 325
187 282 187 l-45 0 40 25 40 24 -562 1 -563 0 0 135 0 135 565 0 564 0 3 -134
3 -134 138 80 c107 61 145 78 170 76 28 -3 13 -13 -138 -100 l-170 -98 588 0
c515 0 587 2 587 15 0 13 66 15 535 15 l535 0 0 200 0 200 30 0 30 0 0 140 0
140 -155 0 -155 0 0 90 0 90 155 0 155 0 0 281 0 281 -50 -76 c-94 -139 -120
-157 -787 -540 -111 -64 -209 -119 -217 -122 -13 -5 -16 1 -16 30 0 20 -3 36
-7 36 -7 0 -63 -30 -302 -164 l-164 -91 172 -3 171 -2 0 -25 0 -25 -219 0
-220 0 -235 -136 c-191 -109 -242 -135 -268 -132 -28 3 36 42 473 293 l504
290 85 5 85 5 315 179 c173 99 335 193 360 209 101 67 210 193 210 243 l0 29
-20 -32 c-16 -27 -26 -33 -55 -33 -19 0 -35 2 -35 3 0 2 14 31 30 64 30 61 70
196 70 240 0 21 4 23 55 23 l55 0 0 200 0 200 -45 0 -45 0 0 75 0 75 45 0 45
0 0 265 0 265 30 0 30 0 0 128 c0 70 3 205 7 300 l6 172 -31 0 -32 0 0 535 0
535 -40 0 -40 0 0 265 0 265 41 0 42 0 -5 143 c-5 139 -15 185 -63 300 -6 14
-2 17 24 17 17 0 31 4 31 8 0 19 -102 152 -147 191 -26 24 -108 79 -181 122
-124 73 -137 79 -189 79 -52 0 -67 6 -199 83 -131 75 -140 82 -110 85 25 2 61
-14 170 -78 75 -44 139 -80 141 -80 3 0 5 13 5 30 l0 29 120 -69 c66 -39 122
-70 125 -70 3 0 5 117 5 260 l0 260 -35 0 -35 0 0 310 0 310 -977 0 c-542 0
-973 -4 -968 -9 6 -4 245 -144 533 -310 431 -249 529 -301 560 -301 29 0 60
-14 137 -64 55 -35 159 -98 230 -140 119 -69 127 -76 94 -76 -27 0 -88 31
-276 140 -185 108 -249 140 -276 140 -26 0 -82 28 -233 116 -110 64 -205 119
-211 121 -10 4 -13 -18 -13 -91 l0 -96 -605 0 -605 0 0 115 0 115 573 2 574 3
-322 188 -321 187 -65 0 -65 0 -281 163 c-249 144 -277 162 -248 165 27 3 82
-25 310 -157 152 -89 278 -161 280 -161 2 0 5 15 7 34 l3 34 58 -34 c32 -19
60 -34 62 -34 3 0 5 61 5 135 l0 135 -260 0 -260 0 0 95 0 95 260 0 260 0 0
50 0 50 -532 -1 -533 0 72 -19 c83 -22 112 -35 291 -139 122 -69 131 -76 102
-79 -25 -3 -58 12 -149 65 -172 101 -251 138 -336 156 -68 15 -197 17 -1335
17 l-1260 0 0 -615z m2418 378 c-15 -2 -42 -2 -60 0 -18 2 -6 4 27 4 33 0 48
-2 33 -4z m-203 -26 c-28 -13 -129 -69 -225 -124 -300 -171 -328 -184 -366
-181 -31 3 -9 17 233 155 148 84 279 156 293 162 14 5 45 10 70 10 l45 1 -50
-23z m-486 -340 c-30 -18 -178 -102 -327 -187 l-271 -155 204 -3 205 -2 0 -45
0 -45 -287 0 -288 0 -165 -95 c-146 -84 -161 -95 -130 -95 32 0 26 -6 -75 -63
l-110 -62 113 -3 112 -3 0 -59 0 -60 -223 0 c-181 0 -227 -3 -243 -15 -10 -8
-37 -14 -59 -14 -40 0 -40 0 -15 14 23 13 16 14 -77 15 l-103 0 0 60 0 60 206
0 206 0 110 63 c97 55 107 63 83 67 -24 4 -6 17 131 95 l159 90 -83 3 -82 3 0
44 0 45 168 1 167 0 325 189 c271 157 332 188 365 189 l40 0 -56 -32z m2971
-87 l0 -70 -205 0 -205 0 0 70 0 70 205 0 205 0 0 -70z m-4625 -838 c-28 -16
66 -17 1768 -20 1186 -1 1797 -5 1797 -12 0 -6 9 -10 20 -10 18 0 20 -7 20
-55 l0 -55 35 0 35 0 0 -60 0 -60 775 0 775 0 0 -160 0 -160 -170 0 -170 0 0
-60 0 -60 505 0 505 0 0 -200 0 -200 -335 0 -335 0 0 -510 c0 -447 -2 -510
-15 -510 -12 0 -15 -16 -15 -85 0 -69 3 -85 15 -85 13 0 15 -92 15 -765 l0
-765 -595 0 c-522 0 -595 -2 -595 -15 0 -8 9 -15 20 -15 17 0 20 -7 20 -40 0
-36 -2 -40 -25 -40 -22 0 -25 4 -25 40 0 33 -3 40 -20 40 -16 0 -20 7 -20 35
l0 35 -60 0 -60 0 0 -35 c0 -24 -5 -35 -15 -35 -10 0 -15 11 -15 35 l0 35
-125 0 -125 0 0 -35 c0 -19 -4 -35 -10 -35 -5 0 -10 16 -10 35 l0 35 -60 0
-60 0 -2 -37 -1 -38 -4 38 -4 37 -65 0 -64 0 -2 -37 -1 -38 -4 38 -4 37 -119
0 -119 0 -7 -35 c-8 -47 -34 -47 -34 0 0 24 -5 35 -15 35 -8 0 -15 7 -15 15 0
8 7 15 15 15 9 0 18 7 22 16 5 15 7 15 15 0 8 -13 29 -16 133 -16 l125 0 2 43
1 42 4 -42 4 -43 65 0 64 0 2 38 1 37 4 -37 4 -38 60 0 c40 0 59 4 60 13 0 10
2 10 6 0 3 -9 27 -13 69 -13 62 0 64 1 64 25 0 14 -9 34 -20 45 -19 19 -19 20
-2 20 10 0 26 -6 36 -13 15 -11 16 -17 7 -35 -20 -37 -13 -42 49 -42 47 0 62
4 67 16 5 15 7 15 15 0 7 -12 24 -16 68 -16 l60 0 0 93 0 94 -287 6 c-157 4
-389 7 -515 7 l-228 0 0 -31 c0 -18 -4 -28 -10 -24 -16 10 -40 -15 -40 -41 0
-18 -6 -24 -21 -24 -29 0 -23 51 9 65 13 6 22 18 22 32 l0 23 -1110 0 -1110 0
0 -60 c0 -53 -2 -60 -20 -60 -22 0 -23 -3 -14 -49 6 -30 9 -31 55 -31 27 0 49
-4 49 -10 0 -5 -22 -10 -50 -10 l-50 0 0 -40 c0 -33 3 -40 20 -40 18 0 20 -7
20 -65 0 -58 -2 -65 -20 -65 -16 0 -20 -7 -20 -30 l0 -30 60 0 60 0 0 30 c0
23 4 30 20 30 15 0 20 7 20 25 0 18 5 25 20 25 15 0 20 -7 20 -25 0 -18 -5
-25 -20 -25 -16 0 -20 -7 -20 -30 l0 -30 280 0 c293 0 328 5 343 45 7 17 47
21 47 5 0 -6 -15 -19 -32 -30 l-33 -20 1088 0 1087 0 0 -510 0 -510 -1799 -2
-1799 -3 125 -72 126 -73 484 0 483 0 0 -65 0 -65 -442 -2 -443 -3 238 -137
c131 -76 240 -138 242 -138 3 0 5 29 5 65 l0 65 220 0 220 0 0 -70 0 -70 -212
-2 -212 -3 139 -80 c136 -78 139 -80 103 -83 -33 -3 -70 16 -300 151 -145 85
-322 189 -394 231 l-131 76 -206 0 -207 0 0 65 0 65 165 2 165 3 -187 109
c-817 473 -829 481 -796 484 25 3 71 -20 229 -112 l198 -116 153 0 153 0 0
115 0 115 -55 0 -55 0 0 165 0 165 55 0 55 0 0 125 0 125 -295 0 -295 0 0 115
0 115 30 0 c28 0 30 3 30 35 0 35 0 35 45 35 l45 0 0 265 0 265 30 0 30 0 0
300 0 300 -30 0 -30 0 0 515 0 515 -205 0 -205 0 0 135 0 135 165 0 165 0 0
150 0 150 40 0 40 0 0 230 0 230 35 0 35 0 0 116 c0 63 -3 113 -7 111 -5 -2
-61 -35 -125 -71 -64 -37 -139 -87 -167 -112 -37 -34 -57 -44 -83 -44 -29 0
-37 -6 -64 -47 -36 -55 -68 -139 -78 -200 l-6 -43 170 0 170 0 0 -79 0 -79
-192 -3 c-106 -2 -237 -2 -290 -1 l-98 4 0 79 0 79 83 0 84 0 12 67 c13 70 47
153 82 197 14 18 30 26 51 26 22 0 45 13 84 48 79 71 579 352 625 351 40 0 41
1 -81 -69 l-85 -50 143 0 142 0 0 60 c0 53 -2 60 -20 60 -17 0 -20 7 -20 40 0
22 -3 40 -6 40 -3 0 -36 -18 -74 -40 -48 -28 -80 -40 -107 -40 -36 0 -29 5
107 84 114 66 154 84 185 85 l40 0 -30 -17z m-1155 -467 l0 -85 -35 0 c-35 0
-35 1 -35 43 0 32 8 53 31 85 17 23 33 42 35 42 2 0 4 -38 4 -85z m100 -810
l0 -265 -35 0 -35 0 0 265 0 265 35 0 35 0 0 -265z m80 -715 l0 -450 215 0
215 0 0 -70 0 -70 -220 0 c-189 0 -220 -2 -220 -15 0 -10 10 -15 30 -15 l30 0
0 -300 0 -300 -30 0 -30 0 0 -265 0 -265 -35 0 -35 0 0 265 0 265 30 0 30 0 0
300 0 300 -30 0 -30 0 0 218 c0 120 3 361 7 535 l6 317 34 0 33 0 0 -450z
m-310 -920 l0 -300 -30 0 -30 0 0 300 0 300 30 0 30 0 0 -300z m3880 -730 c0
-33 -3 -40 -20 -40 -16 0 -20 7 -20 33 0 36 6 47 27 47 9 0 13 -13 13 -40z
m-1666 -36 c9 -3 16 -14 16 -24 0 -27 11 -51 20 -45 5 3 12 -4 15 -16 5 -14 2
-25 -6 -30 -22 -14 -28 -11 -35 19 -10 48 -26 82 -43 92 -15 9 -15 9 1 10 9 0
23 -3 32 -6z m261 -6 c29 -13 29 -14 10 -48 -14 -24 -14 -24 -15 -3 0 12 -12
31 -26 42 -30 24 -12 29 31 9z m208 5 c-7 -2 -19 -2 -25 0 -7 3 -2 5 12 5 14
0 19 -2 13 -5z m331 -4 c31 -14 56 -65 56 -113 0 -29 -4 -36 -20 -36 -16 0
-20 7 -20 35 0 43 -22 88 -52 109 -18 13 -19 16 -6 16 10 0 28 -5 42 -11z
m421 -3 c17 -12 18 -17 7 -40 -19 -42 -15 -46 47 -46 53 0 60 2 67 23 l7 22
10 -22 c9 -20 17 -23 73 -23 57 0 62 2 57 20 -3 11 0 20 6 20 6 0 11 -9 11
-20 0 -18 7 -20 60 -20 53 0 60 2 60 20 0 13 7 20 20 20 13 0 20 -7 20 -20 0
-17 7 -20 50 -20 28 0 50 -4 50 -10 0 -5 -22 -10 -50 -10 l-50 0 0 -35 c0 -28
4 -35 20 -35 11 0 20 -7 20 -15 0 -8 -7 -15 -15 -15 -9 0 -18 7 -21 15 -4 8
-15 15 -25 15 -15 0 -19 7 -19 35 l0 35 -60 0 -60 0 0 -35 c0 -19 -4 -35 -8
-35 -4 0 -6 16 -4 35 l4 35 -60 0 -61 0 -7 -35 c-3 -20 -12 -35 -20 -35 -9 0
-14 12 -14 35 l0 35 -125 0 -125 0 0 -35 c0 -19 -4 -35 -10 -35 -5 0 -10 16
-10 35 l0 35 -100 0 c-60 0 -100 4 -100 10 0 6 40 10 100 10 88 0 100 2 100
18 1 16 1 16 11 0 8 -14 23 -18 69 -18 60 0 60 0 60 30 0 17 -9 39 -20 50 -19
19 -19 20 -2 20 10 0 27 -6 37 -14z m240 4 c-3 -5 -12 -7 -20 -3 -21 7 -19 13
6 13 11 0 18 -4 14 -10z m763 1 c8 -4 12 -17 10 -27 -3 -17 -6 -16 -30 9 -21
21 -23 27 -10 27 9 0 23 -4 30 -9z m-1638 -9 c0 -4 -8 -19 -17 -32 -11 -16
-17 -44 -18 -82 0 -32 -3 -58 -7 -58 -10 0 -10 90 -2 143 5 27 11 37 25 37 11
0 19 -3 19 -8z m1130 -17 c0 -18 -5 -25 -20 -25 -15 0 -20 7 -20 25 0 18 5 25
20 25 15 0 20 -7 20 -25z m300 21 c0 -2 -7 -6 -15 -10 -8 -3 -15 -1 -15 4 0 6
7 10 15 10 8 0 15 -2 15 -4z m-2130 -123 c0 -41 -4 -53 -15 -53 -11 0 -15 12
-15 49 0 27 3 57 6 66 11 29 24 -4 24 -62z m240 73 c0 -3 -4 -8 -10 -11 -5 -3
-10 -1 -10 4 0 6 5 11 10 11 6 0 10 -2 10 -4z m290 -73 c0 -41 -4 -53 -15 -53
-11 0 -15 12 -15 49 0 27 3 57 6 66 11 29 24 -4 24 -62z m1549 41 c-6 -19 -7
-49 -4 -65 5 -22 3 -29 -9 -29 -13 0 -16 12 -16 65 0 57 2 65 19 65 17 0 18
-4 10 -36z m-3969 -49 l0 -75 -35 0 -35 0 0 75 0 75 35 0 35 0 0 -75z m2700
50 c0 -14 -4 -25 -10 -25 -5 0 -10 11 -10 25 0 14 5 25 10 25 6 0 10 -11 10
-25z m-560 -80 c0 -8 -4 -15 -10 -15 -5 0 -10 7 -10 15 0 8 5 15 10 15 6 0 10
-7 10 -15z m584 0 c3 -8 14 -15 25 -15 11 0 23 -4 26 -10 3 -5 -3 -10 -14 -10
-11 0 -23 5 -26 10 -3 6 -17 10 -31 10 -15 0 -24 6 -24 15 0 8 9 15 19 15 10
0 21 -7 25 -15z m493 -7 c-3 -8 -6 -5 -6 6 -1 11 2 17 5 13 3 -3 4 -12 1 -19z
m1570 0 c-3 -8 -6 -5 -6 6 -1 11 2 17 5 13 3 -3 4 -12 1 -19z m-2607 -12 c0
-3 -4 -8 -10 -11 -5 -3 -10 -1 -10 4 0 6 5 11 10 11 6 0 10 -2 10 -4z m432
-24 c23 -38 14 -102 -13 -102 -17 0 -19 8 -19 65 0 36 4 65 8 65 4 0 15 -13
24 -28z m518 -12 c0 -22 -4 -40 -10 -40 -5 0 -10 18 -10 40 0 22 5 40 10 40 6
0 10 -18 10 -40z m145 10 c20 -39 19 -50 -5 -50 -17 0 -20 7 -20 40 0 48 4 50
25 10z m275 6 c0 -27 -33 -56 -64 -56 -16 0 -15 3 7 20 14 11 29 29 32 40 9
28 25 25 25 -4z m468 -19 c3 -32 0 -37 -17 -37 -18 0 -21 6 -21 41 0 33 3 40
18 37 12 -2 18 -14 20 -41z m539 -19 c-2 -13 -4 -3 -4 22 0 25 2 35 4 23 2
-13 2 -33 0 -45z m143 22 c0 -22 -4 -40 -10 -40 -5 0 -10 18 -10 40 0 22 5 40
10 40 6 0 10 -18 10 -40z m160 -32 c0 -5 -9 -8 -20 -8 -17 0 -20 7 -20 43 l1
42 19 -35 c11 -19 19 -38 20 -42z m-1970 32 c0 -23 -5 -31 -25 -36 -13 -3 -30
-4 -37 -1 -8 4 -7 6 5 6 11 1 17 9 17 25 0 22 10 33 33 35 4 1 7 -12 7 -29z
m-557 -12 c17 -27 17 -28 -3 -28 -16 0 -20 7 -20 32 0 17 1 29 3 27 2 -2 11
-16 20 -31z m1427 0 c0 -21 -5 -28 -20 -28 -15 0 -20 7 -20 28 0 21 5 28 20
28 15 0 20 -7 20 -28z m530 7 c0 -16 -30 -35 -54 -35 -10 0 -7 8 12 28 28 29
42 31 42 7z m-4200 -115 l0 -130 330 0 330 0 0 -64 0 -64 -357 -4 c-197 -1
-388 -1 -425 0 l-68 4 0 64 0 64 60 0 60 0 0 130 0 130 35 0 35 0 0 -130z
m1963 106 c6 -14 -12 -26 -39 -26 -11 0 -10 4 4 19 21 24 28 25 35 7z m374
-72 c-3 -3 -12 -4 -19 -1 -8 3 -5 6 6 6 11 1 17 -2 13 -5z m-2423 -370 c23
-79 76 -164 139 -221 l47 -43 -38 0 c-69 0 -163 105 -211 233 -30 82 -28 97
12 97 31 0 33 -2 51 -66z m-274 -639 l0 -375 560 0 560 0 0 -45 0 -45 -610 0
-610 0 0 420 0 420 50 0 50 0 0 -375z m3490 -865 l0 -120 -130 0 -130 0 0 120
0 120 130 0 130 0 0 -120z m-690 -52 c174 -100 178 -103 140 -106 -34 -3 -62
10 -207 94 -93 53 -172 101 -177 106 -6 4 7 8 28 8 30 0 76 -22 216 -102z
m-320 -133 c0 -31 -5 -31 -55 0 l-40 25 48 0 c44 0 47 -2 47 -25z m676 -24
c228 -141 501 -296 552 -312 l57 -20 -58 5 c-31 2 -82 16 -112 30 -53 24 -570
320 -589 338 -6 4 7 8 30 8 31 0 59 -12 120 -49z"/>
<path d="M10890 7120 l0 -110 175 0 175 0 0 110 0 110 -175 0 -175 0 0 -110z"/>
<path d="M7450 5700 l0 -700 30 0 c28 0 30 -2 30 -40 l0 -40 420 0 420 0 0
-30 0 -30 -420 0 c-273 0 -420 -3 -420 -10 0 -5 -13 -10 -30 -10 l-30 0 0
-580 c0 -573 0 -580 20 -580 20 0 20 7 20 280 l0 280 1203 0 c661 1 1460 1
1775 0 509 -1 572 1 572 15 0 13 46 15 400 15 l400 0 0 50 0 50 -45 0 c-41 0
-45 2 -45 25 0 23 4 25 45 25 41 0 45 2 45 25 l0 25 -150 0 -150 0 0 55 0 55
105 0 105 0 0 45 c0 41 2 45 25 45 23 0 25 -4 25 -45 l0 -45 90 0 90 0 0 44
c0 38 -3 45 -22 49 l-23 4 23 2 c18 1 22 7 22 31 0 29 2 30 45 30 l45 0 0 50
c0 49 1 50 30 50 l30 0 0 80 0 80 -30 0 -30 0 0 65 0 65 -90 0 -90 0 0 -60 c0
-57 -1 -60 -25 -60 -24 0 -25 3 -25 60 l0 60 -377 -2 -378 -3 -30 -57 c-23
-45 -35 -58 -53 -58 -22 0 -22 0 8 53 16 30 30 57 30 60 0 4 -121 7 -269 7
l-269 0 -7 -65 c-6 -56 -10 -65 -28 -65 -19 0 -19 4 -14 65 l6 65 -431 0 -431
0 6 -65 c6 -59 4 -65 -12 -65 -24 0 -31 19 -31 81 l0 49 -410 0 -410 0 0 -60
c0 -57 -1 -60 -25 -60 -24 0 -25 3 -25 60 l0 60 -220 0 -220 0 0 30 0 30 223
0 c122 0 981 0 1910 1 l1687 0 0 339 0 340 -90 0 -90 0 0 -170 0 -170 -25 0
c-24 0 -25 3 -25 60 l0 60 -30 0 -30 0 0 110 0 110 -701 0 -701 0 6 -22 c13
-47 36 -160 36 -179 0 -12 -7 -19 -19 -19 -14 0 -20 10 -25 43 -4 23 -14 72
-22 110 l-16 67 -373 0 -374 0 -10 -37 c-9 -35 -31 -157 -31 -175 0 -5 -9 -8
-20 -8 -25 0 -25 17 -2 133 l18 87 -433 0 -433 0 0 -110 0 -110 -25 0 -25 0 0
110 0 110 -550 0 -550 0 0 30 0 30 580 0 580 0 0 100 0 100 25 0 25 0 0 -100
0 -100 441 0 441 0 47 50 c36 38 54 50 77 50 l29 0 -30 -19 c-27 -16 -65 -60
-65 -76 0 -3 155 -5 345 -5 278 0 345 3 345 13 0 7 -20 53 -45 101 -42 82 -43
87 -22 84 17 -2 34 -26 71 -100 l49 -98 709 0 708 0 0 100 0 100 25 0 25 0 0
-100 0 -100 90 0 90 0 0 215 0 215 -90 0 c-89 0 -90 0 -90 -25 0 -20 -5 -25
-25 -25 -18 0 -25 5 -25 19 0 11 -9 21 -22 25 -13 3 -193 6 -400 6 -371 0
-378 0 -378 20 0 20 -8 20 -1795 20 l-1795 0 0 -700z m2533 675 c66 -17 162
-64 133 -65 -10 0 -42 11 -70 25 -28 13 -76 31 -106 39 -30 8 -46 15 -35 15
12 1 47 -6 78 -14z m-1243 -40 c0 -20 5 -25 25 -25 25 0 25 -1 25 -90 0 -89 0
-90 -25 -90 -25 0 -25 1 -25 90 0 89 0 90 -25 90 -18 0 -25 5 -25 19 0 11 -8
22 -17 24 -10 3 1 5 25 6 38 1 42 -1 42 -24z m1525 -87 c36 -33 75 -74 86 -90
l20 -28 -23 1 c-15 0 -35 16 -60 49 -21 27 -61 68 -89 90 -46 36 -48 40 -25
40 17 0 46 -19 91 -62z m1675 -28 c0 -89 0 -90 -25 -90 -25 0 -25 1 -25 90 0
89 0 90 25 90 25 0 25 -1 25 -90z m-3870 -50 c0 -36 -2 -40 -25 -40 l-26 0 23
40 c13 22 24 40 26 40 1 0 2 -18 2 -40z m90 -500 c-9 -17 -50 -30 -50 -15 0 3
12 29 28 58 l27 52 3 -37 c2 -20 -2 -46 -8 -58z m3150 0 c-9 -17 -50 -30 -50
-15 0 3 12 29 28 58 l27 52 3 -37 c2 -20 -2 -46 -8 -58z m-3132 -80 c-21 -38
-40 -60 -50 -60 -23 0 -23 -1 9 65 21 43 32 55 50 55 l24 0 -33 -60z m562 0
c0 -57 -1 -60 -25 -60 -24 0 -25 3 -25 60 0 57 1 60 25 60 24 0 25 -3 25 -60z
m870 46 c0 -7 -3 -34 -6 -60 -5 -36 -11 -46 -25 -46 -14 0 -19 7 -19 29 0 57
12 91 31 91 11 0 19 -6 19 -14z m874 2 c3 -7 7 -34 10 -60 5 -43 4 -48 -15
-48 -23 0 -26 7 -32 73 -4 41 -2 47 15 47 10 0 20 -6 22 -12z m844 -48 c-21
-38 -40 -60 -50 -60 -23 0 -23 -1 9 65 21 43 32 55 50 55 l24 0 -33 -60z
m-3128 -66 c0 -4 -37 -78 -82 -165 -71 -136 -86 -159 -106 -159 -24 0 -24 0
11 63 19 34 58 108 86 165 39 78 56 102 71 102 11 0 20 -3 20 -6z m600 -159
l0 -165 -25 0 -25 0 0 165 0 165 25 0 25 0 0 -165z m860 0 c0 -155 -1 -165
-19 -165 -24 0 -30 58 -23 216 4 103 7 114 23 114 18 0 19 -11 19 -165z m904
42 c8 -150 1 -207 -25 -207 -18 0 -19 10 -19 165 0 154 1 165 19 165 16 0 19
-12 25 -123z m786 117 c0 -4 -37 -78 -82 -165 -71 -136 -86 -159 -106 -159
-24 0 -24 0 11 63 19 34 58 108 86 165 39 78 56 102 71 102 11 0 20 -3 20 -6z
m600 -159 l0 -165 -25 0 -25 0 0 165 0 165 25 0 25 0 0 -165z m-4380 -115 c0
-48 -1 -50 -29 -50 l-29 0 27 50 c14 27 27 50 29 50 1 0 2 -22 2 -50z m400
-56 c0 -3 -21 -45 -47 -94 -40 -74 -52 -90 -72 -90 -22 0 -22 1 -8 23 8 12 31
55 51 95 27 53 41 72 56 72 11 0 20 -2 20 -6z m983 -191 c-7 -2 -19 -2 -25 0
-7 3 -2 5 12 5 14 0 19 -2 13 -5z m67 -83 c0 -73 -2 -80 -20 -80 -18 0 -20 7
-20 80 0 73 2 80 20 80 18 0 20 -7 20 -80z m654 23 c4 -31 9 -67 12 -80 5 -18
2 -23 -14 -23 -28 0 -29 4 -37 88 -7 68 -6 72 12 72 17 0 21 -9 27 -57z m869
30 c-18 -114 -24 -133 -45 -133 -18 0 -20 4 -14 33 4 17 10 53 13 80 5 40 9
47 28 47 19 0 22 -4 18 -27z m-1583 -183 c0 -43 -3 -50 -20 -50 -17 0 -20 7
-20 50 0 43 3 50 20 50 17 0 20 -7 20 -50z m681 8 c6 -24 13 -46 16 -50 2 -5
-7 -8 -20 -8 -21 0 -26 7 -36 44 -14 57 -14 56 9 56 14 0 22 -11 31 -42z m805
-5 c-10 -38 -17 -49 -36 -51 -17 -3 -21 0 -17 11 3 9 9 32 13 51 5 29 11 36
29 36 22 0 23 -1 11 -47z m-1576 -88 c0 -35 0 -35 -42 -34 -24 1 -33 4 -20 6
17 3 22 11 22 34 0 22 5 29 20 29 16 0 20 -7 20 -35z m723 -15 c15 -28 42 -59
60 -70 31 -19 31 -20 7 -20 -33 0 -64 23 -101 73 -33 46 -37 67 -11 67 10 0
28 -20 45 -50z m747 45 c0 -2 -9 -27 -20 -55 l-20 -50 130 0 130 0 0 -35 0
-35 -148 0 c-148 0 -149 0 -162 -25 -8 -16 -22 -25 -37 -25 -23 0 -23 1 -7 25
l16 25 -156 0 -156 0 0 35 0 35 174 0 174 0 11 28 c6 15 15 39 20 55 7 17 18
27 31 27 11 0 20 -2 20 -5z m-1690 -145 c0 -79 0 -80 -25 -80 -25 0 -25 1 -25
80 0 79 0 80 25 80 25 0 25 -1 25 -80z m90 -125 c0 -41 -2 -45 -25 -45 -23 0
-25 4 -25 45 0 41 2 45 25 45 23 0 25 -4 25 -45z m1580 38 c-1 -20 -67 -85
-83 -82 -16 4 -14 9 13 47 18 24 40 42 51 42 10 0 19 -3 19 -7z m-1670 -108
c0 -20 -5 -25 -25 -25 -20 0 -25 5 -25 25 0 20 5 25 25 25 20 0 25 -5 25 -25z
m1490 0 c-13 -14 -32 -25 -43 -25 -20 0 -19 1 3 25 13 14 32 25 43 25 20 0 19
-1 -3 -25z m-1400 -80 l0 -55 -42 1 c-24 1 -35 3 -25 6 13 3 17 15 17 54 0 46
2 49 25 49 24 0 25 -3 25 -55z m1440 34 c-40 -32 -163 -89 -206 -95 -34 -4
-32 -2 25 21 35 14 85 41 110 59 25 19 57 35 71 35 l25 1 -25 -21z"/>
<path d="M12020 4625 c0 -41 2 -45 25 -45 23 0 25 4 25 45 0 41 -2 45 -25 45
-23 0 -25 -4 -25 -45z"/>
<path d="M11890 4370 l0 -100 90 0 90 0 0 100 0 100 -90 0 -90 0 0 -100z"/>
<path d="M6660 8210 l0 -160 190 0 190 0 0 160 0 160 -190 0 -190 0 0 -160z"/>
<path d="M13273 7209 c56 -37 147 -134 183 -194 14 -25 28 -45 30 -45 2 0 4
61 4 135 l0 135 -132 0 -131 0 46 -31z"/>
</g>
</svg>
